<svg xmlns="http://www.w3.org/2000/svg" xmlns:xlink="http://www.w3.org/1999/xlink" width="124" height="18" viewBox="0 0 124 18">
    <defs>
        <path id="a" d="M.142.41h11.204V17.51H.142z"/>
        <path id="c" d="M0 .104h51.787V15.53H0z"/>
    </defs>
    <g fill="none" fill-rule="evenodd">
        <path fill="#FEFEFE" d="M4.188 9.103l.008-.436.011-.761a.122.122 0 0 0-.005-.04.153.153 0 0 0-.046.039c-.016.019-.182.198-.452.488-.287.307-.643.69-.672.725-.024.025-.026.042-.025.045.001.003.02.018.077.019l.981.001c.123 0 .123-.035.123-.08M15.217 7.906c-.018.022-.257.278-.533.574-.278.299-.564.607-.593.64-.022.024-.025.04-.023.043.001.004.019.018.077.019l.984.001c.124 0 .124-.039.124-.08l.006-.435.01-.762a.14.14 0 0 0-.005-.039.147.147 0 0 0-.047.039"/>
        <path fill="#FEFEFE" d="M16.419 11.19h-2.021c-.06-.011-.066-.043-.067-.056l-.002-.039.046-.017c.023-.015.719-.236.725-.238.077-.026.089-.03.092-.162l.027-.631c.01-.22.019-.425.019-.449v-.015c.002-.064-.001-.101-.082-.108-.078-.006-.294-.025-.516-.029a9.257 9.257 0 0 0-.612 0c-.149.002-.175.009-.255.068-.067.057-1.02 1.23-1.066 1.295-.004.006-.013.022-.009.033.003.01.02.024.059.035.097.03.683.151.855.186.035.009.056.038.052.069-.004.03-.03.059-.074.059h-1.902a.063.063 0 0 1-.064-.05.068.068 0 0 1 .038-.074l.03-.013c.07-.028.254-.102.354-.181.086-.07 1.917-2.055 2.9-3.122l.834-.902c.043-.041.11-.03.13.016.01.019.016.029-.02 2.787-.007.55-.014 1.024-.013 1.05.004.06.007.113.086.15.092.044.45.197.497.216.031.015.046.042.04.07-.007.032-.04.053-.081.053zm-4.947-.258c-.004.002-.69.275-1.36.293l-.092.001c-.923 0-1.404-.375-1.645-.689-.312-.408-.406-.956-.258-1.503.144-.542.499-1.067.973-1.44.149-.115.946-.69 2.07-.69.164 0 .671.021 1.045.117.08.021.132.054.16.102.035.062.017.129.005.173-.003.01-.394 1.183-.407 1.218-.023.066-.105.084-.137.034a.094.094 0 0 1-.015-.054l.011-.252c.013-.278.037-.794.035-.833 0-.113-.004-.14-.085-.165a1.93 1.93 0 0 0-.492-.049c-.227 0-.663.026-1.03.197-.918.428-1.541 1.447-1.42 2.32.1.74.685 1.23 1.49 1.251.285.008.477-.035.526-.05.066-.02.07-.03.089-.076.015-.047.163-.661.168-.69l.005-.016c.004-.013.013-.044.006-.057-.003-.006-.014-.01-.02-.012-.054-.013-.366-.097-.615-.165l-.32-.086c-.065-.015-.063-.062-.062-.072.004-.035.038-.06.083-.06h1.544c.06 0 .133.007.174.06.027.036.032.083.017.14-.042.141-.274.872-.294.925-.02.059-.07.1-.149.128zM.6.722v10.337l.02-.008c.173-.063.297-.123.366-.178.076-.065 1.782-1.914 2.801-3.02.597-.647.909-.985.928-1.004.043-.041.11-.03.131.016.01.017.018.034-.029 3.5a74.68 74.68 0 0 0-.004.34c.003.062.012.112.085.147.092.044.45.197.497.216.004.001.005.005.008.006.003-.001.002-.004.006-.006.021-.01.145-.054.317-.117l.173-.064c.045-.017.13-.05.153-.12.018-.067.81-3.328.818-3.356.022-.093-.011-.118-.051-.132-.028-.011-.182-.063-.319-.11a8.444 8.444 0 0 1-.23-.079c-.044-.016-.055-.05-.05-.074.004-.025.026-.05.066-.05H8.25c.04 0 .073.023.078.055.004.023-.007.055-.048.069-.032.007-.35.1-.387.111l-.044.014c-.05.017-.124.04-.165.06a.205.205 0 0 0-.132.145 557.67 557.67 0 0 0-.79 3.322c-.018.079-.01.095.032.111.045.019.182.068.31.114.16.057.233.083.25.092.043.015.054.05.05.076-.005.027-.03.056-.084.056H5.448c-.023 0-.034-.007-.046-.013a.099.099 0 0 1-.048.013h-2.02c-.06-.012-.067-.044-.068-.057l-.002-.038.046-.018c.022-.014.718-.235.724-.238.078-.026.09-.03.093-.162l.028-.631c.01-.219.019-.425.019-.449v-.015c.001-.064-.002-.101-.083-.108a7.9 7.9 0 0 0-.516-.029 9.218 9.218 0 0 0-.611 0c-.15.002-.175.009-.251.068-.072.058-1.018 1.22-1.066 1.293-.012.016-.016.028-.013.036.003.01.02.023.058.034.1.03.696.154.855.186.035.007.057.035.054.068-.004.034-.035.06-.075.06H.623l-.023.005v6.115h16.61V.721H.6z"/>
        <g transform="translate(19.979 .052)">
            <mask id="b" fill="#fff">
                <use xlink:href="#a"/>
            </mask>
            <path fill="#FEFEFE" d="M9.695.663h1.27v5.48h-1.27C9.745 3.1 8.45 1.527 5.376 1.527c-1.88 0-3.658 1.217-3.658 3.273 0 4.364 9.628 2.03 9.628 8.221 0 2.842-2.591 4.492-5.233 4.492-2.058 0-3.633-.559-4.65-2.436h-.05v2.182H.143v-5.481h1.27c-.153 2.613 1.575 4.618 4.268 4.618 1.93 0 4.09-1.015 4.09-3.375 0-4.643-9.629-2.664-9.629-8.22C.142 2.083 2.683.408 5.376.408c1.6 0 3.379.533 4.268 1.929h.051V.663z" mask="url(#b)"/>
        </g>
        <path fill="#FEFEFE" d="M37.245 16.193h1.981c5.056 0 7.826-1.903 7.826-7.384 0-5.252-3.024-6.978-7.826-6.978h-1.981v14.362zm-3.71 0h2.287V1.831h-2.286V.715h5.945c5.411 0 9.146 2.106 9.146 8.094 0 6.318-3.405 8.5-9.146 8.5h-5.945v-1.116z"/>
        <g>
            <path fill="#FFF" d="M122.689 15.411a.656.656 0 0 1 0-1.313c.36 0 .65.294.65.657 0 .359-.29.656-.65.656zm0-1.433a.773.773 0 1 0 0 1.546.773.773 0 0 0 0-1.546zm-.146.718v-.249h.142c.082 0 .173.024.173.12 0 .106-.102.13-.19.13h-.125zm.47-.126c0-.188-.158-.257-.32-.257h-.305v.875h.155v-.365h.112l.203.365h.19l-.234-.382c.122-.028.2-.11.2-.236z"/>
            <g transform="translate(70.6 .189)">
                <mask id="d" fill="#fff">
                    <use xlink:href="#c"/>
                </mask>
                <path fill="#FFF" d="M47.548 3.292c.873 0 1.58-.714 1.58-1.594 0-.88-.707-1.594-1.58-1.594-.873 0-1.58.714-1.58 1.594 0 .88.707 1.594 1.58 1.594zM43.31 4.667v2.337h2.932v8.219h2.614V7.004h2.932V4.667H43.31zM20.495 3.292c.873 0 1.58-.714 1.58-1.594 0-.88-.707-1.594-1.58-1.594-.872 0-1.58.714-1.58 1.594 0 .88.708 1.594 1.58 1.594zm-4.238 3.712h2.931v8.219h2.614V7.004h2.932V4.667h-8.477v2.337zm22.606 8.219h2.615V4.673h-2.615v10.55zm-5.292-4.748c0 1.407-.785 2.857-2.44 2.857-1.678 0-1.962-1.559-1.962-2.812V4.674h-2.614v6.593c0 2.154 1.133 4.263 3.857 4.263 1.546 0 2.788-.945 3.246-2h.044v1.693h2.484V4.673h-2.615v5.802zm-22.504-6.11c-1.546 0-2.789.946-3.246 2h-.044V4.675H5.294v10.549h2.614V9.42c0-1.407.785-2.857 2.44-2.857 1.678 0 1.962 1.56 1.962 2.813v5.846h2.614V8.629c0-2.153-1.132-4.263-3.857-4.263zM0 15.224h2.615V4.673H0v10.55z" mask="url(#d)"/>
            </g>
        </g>
        <g stroke="#FFF" stroke-linecap="square" stroke-width="1.221">
            <path d="M62.658 6.314l-6.906 6.907M62.658 13.22l-6.906-6.906"/>
        </g>
    </g>
</svg>
